<svg width="105" height="63" viewBox="0 0 105 63" fill="none" xmlns="http://www.w3.org/2000/svg">
<rect width="105" height="63" rx="15" fill="black"/>
<path d="M35.064 47.48C31.672 47.48 28.6 46.744 25.848 45.272C23.128 43.768 20.984 41.704 19.416 39.08C17.88 36.456 17.112 33.496 17.112 30.2C17.112 26.904 17.896 23.944 19.464 21.32C21.032 18.696 23.176 16.648 25.896 15.176C28.648 13.672 31.72 12.92 35.112 12.92C37.864 12.92 40.376 13.4 42.648 14.36C44.92 15.32 46.84 16.712 48.408 18.536L44.376 22.328C41.944 19.704 38.952 18.392 35.4 18.392C33.096 18.392 31.032 18.904 29.208 19.928C27.384 20.92 25.96 22.312 24.936 24.104C23.912 25.896 23.4 27.928 23.4 30.2C23.4 32.472 23.912 34.504 24.936 36.296C25.96 38.088 27.384 39.496 29.208 40.52C31.032 41.512 33.096 42.008 35.4 42.008C38.952 42.008 41.944 40.68 44.376 38.024L48.408 41.864C46.84 43.688 44.904 45.08 42.6 46.04C40.328 47 37.816 47.48 35.064 47.48ZM89.1559 50.36C88.0359 51.672 86.7239 52.664 85.2199 53.336C83.7479 54.008 82.1319 54.344 80.3719 54.344C78.0679 54.344 75.9559 53.816 74.0359 52.76C72.1159 51.736 69.9239 49.944 67.4599 47.384C64.3559 47.128 61.5719 46.232 59.1079 44.696C56.6439 43.128 54.7239 41.096 53.3479 38.6C51.9719 36.072 51.2839 33.272 51.2839 30.2C51.2839 26.936 52.0679 23.992 53.6359 21.368C55.2039 18.712 57.3639 16.648 60.1159 15.176C62.8679 13.672 65.9559 12.92 69.3799 12.92C72.8039 12.92 75.8919 13.672 78.6439 15.176C81.3959 16.648 83.5559 18.696 85.1239 21.32C86.6919 23.944 87.4759 26.904 87.4759 30.2C87.4759 32.856 86.9479 35.32 85.8919 37.592C84.8359 39.832 83.3639 41.752 81.4759 43.352C79.5879 44.92 77.3959 46.056 74.8999 46.76C75.8279 47.752 76.7399 48.472 77.6359 48.92C78.5319 49.368 79.4919 49.592 80.5159 49.592C82.7239 49.592 84.6439 48.696 86.2759 46.904L89.1559 50.36ZM57.5719 30.2C57.5719 32.44 58.0839 34.472 59.1079 36.296C60.1319 38.088 61.5399 39.496 63.3319 40.52C65.1239 41.512 67.1399 42.008 69.3799 42.008C71.6199 42.008 73.6359 41.512 75.4279 40.52C77.2199 39.496 78.6279 38.088 79.6519 36.296C80.6759 34.472 81.1879 32.44 81.1879 30.2C81.1879 27.96 80.6759 25.944 79.6519 24.152C78.6279 22.328 77.2199 20.92 75.4279 19.928C73.6359 18.904 71.6199 18.392 69.3799 18.392C67.1399 18.392 65.1239 18.904 63.3319 19.928C61.5399 20.92 60.1319 22.328 59.1079 24.152C58.0839 25.944 57.5719 27.96 57.5719 30.2Z" fill="white"/>
</svg>
