<svg width="60" height="60" viewBox="0 0 60 60" fill="none" xmlns="http://www.w3.org/2000/svg">
<circle cx="30" cy="30" r="29.5" fill="white" stroke="black"/>
<path d="M30.1321 31.1696C30.1766 31.1696 30.2211 31.1696 30.2745 31.1696C30.2924 31.1696 30.3102 31.1696 30.328 31.1696C30.3547 31.1696 30.3903 31.1696 30.417 31.1696C33.026 31.1251 35.1364 30.2079 36.6947 28.4537C40.123 24.5891 39.5531 17.9642 39.4907 17.332C39.2681 12.5858 37.0242 10.3152 35.172 9.25554C33.7918 8.46304 32.1801 8.03562 30.3814 8H30.3191C30.3102 8 30.2924 8 30.2835 8H30.23C29.2416 8 27.3004 8.16028 25.4394 9.21992C23.5694 10.2796 21.2899 12.5502 21.0673 17.332C21.0049 17.9642 20.435 24.5891 23.8633 28.4537C25.4127 30.2079 27.523 31.1251 30.1321 31.1696ZM23.4448 17.5546C23.4448 17.5279 23.4537 17.5011 23.4537 17.4833C23.7475 11.0988 28.2799 10.4131 30.2211 10.4131H30.2567C30.2745 10.4131 30.3013 10.4131 30.328 10.4131C32.7322 10.4666 36.8194 11.4461 37.0954 17.4833C37.0954 17.51 37.0954 17.5368 37.1043 17.5546C37.1132 17.6169 37.7365 23.672 34.9049 26.8598C33.7829 28.1243 32.287 28.7476 30.3191 28.7654C30.3013 28.7654 30.2924 28.7654 30.2745 28.7654C30.2567 28.7654 30.2478 28.7654 30.23 28.7654C28.271 28.7476 26.7662 28.1243 25.6531 26.8598C22.8304 23.6898 23.4359 17.608 23.4448 17.5546Z" fill="black"/>
<path d="M48.5733 42.1578C48.5733 42.1489 48.5733 42.14 48.5733 42.1311C48.5733 42.0598 48.5644 41.9886 48.5644 41.9085C48.511 40.1454 48.3953 36.0226 44.5307 34.7047C44.504 34.6958 44.4684 34.6869 44.4416 34.678C40.4257 33.654 37.0865 31.3388 37.0509 31.3121C36.5077 30.9292 35.7597 31.0627 35.3768 31.6059C34.9939 32.1491 35.1275 32.8971 35.6707 33.28C35.8221 33.3868 39.3661 35.8534 43.8005 36.9932C45.8753 37.7322 46.1068 39.9495 46.1691 41.9797C46.1691 42.0598 46.1691 42.1311 46.178 42.2023C46.1869 43.0037 46.1335 44.2414 45.991 44.9538C44.5485 45.773 38.8941 48.6047 30.2923 48.6047C21.7262 48.6047 16.0362 45.7641 14.5847 44.9449C14.4423 44.2325 14.3799 42.9948 14.3977 42.1934C14.3977 42.1222 14.4066 42.0509 14.4066 41.9708C14.469 39.9406 14.7005 37.7233 16.7753 36.9843C21.2097 35.8445 24.7537 33.369 24.9051 33.2711C25.4483 32.8882 25.5818 32.1402 25.1989 31.597C24.816 31.0538 24.0681 30.9203 23.5249 31.3032C23.4893 31.3299 20.1679 33.6451 16.1341 34.6691C16.0985 34.678 16.0718 34.6869 16.0451 34.6958C12.1805 36.0226 12.0648 40.1454 12.0113 41.8996C12.0113 41.9797 12.0113 42.0509 12.0024 42.1222C12.0024 42.1311 12.0024 42.14 12.0024 42.1489C11.9935 42.6119 11.9846 44.9894 12.4566 46.1826C12.5456 46.4142 12.7059 46.6101 12.9196 46.7436C13.1867 46.9217 19.5891 51 30.3012 51C41.0134 51 47.4158 46.9128 47.6829 46.7436C47.8877 46.6101 48.0569 46.4142 48.1459 46.1826C48.5912 44.9983 48.5823 42.6208 48.5733 42.1578Z" fill="black"/>
</svg>
