<svg width="36" height="36" viewBox="0 0 36 36" fill="none" xmlns="http://www.w3.org/2000/svg">
<path d="M23.4691 0.359259C23.0736 0.727027 22.9377 1.29282 23.1231 1.80039C23.782 3.6038 24.1162 5.50938 24.1162 7.4644C24.1162 11.9133 22.3837 16.0964 19.238 19.2431C16.0918 22.3904 11.9076 24.1235 7.45697 24.1235C5.5066 24.1235 3.60348 23.7895 1.80033 23.1304C1.29303 22.945 0.727502 23.0806 0.359456 23.4764C-0.00858946 23.8722 -0.103347 24.4465 0.118579 24.9395C1.55945 28.1434 3.86907 30.8741 6.79723 32.836C9.79818 34.8465 13.2998 35.9396 16.9243 35.9976C19.5022 36.0387 22.0112 35.5603 24.3816 34.5756C26.6654 33.627 28.7165 32.254 30.4779 30.495C32.2391 28.7361 33.6146 26.6872 34.5665 24.4048C35.5182 22.1221 36.0003 19.71 36 17.231C36 17.1376 35.9995 17.0437 35.9981 16.95C35.9451 13.3215 34.8525 9.81382 32.8389 6.80686C30.8751 3.87434 28.1409 1.56144 24.9323 0.118658C24.4393 -0.103266 23.8649 -0.0087831 23.4691 0.359259Z" fill="white" fill-opacity="0.75"/>
</svg>
