<svg width="36" height="36" viewBox="0 0 36 36" fill="none" xmlns="http://www.w3.org/2000/svg">
<g clip-path="url(#clip0)">
<path d="M33.543 9.02436C33.3617 8.71251 32.9618 8.6067 32.65 8.78802L29.4602 10.6319C29.1484 10.8132 29.0426 11.2131 29.2239 11.5249C29.4052 11.8368 29.8051 11.9426 30.1169 11.7613L33.3067 9.91742C33.6185 9.73601 33.7243 9.33621 33.543 9.02436Z" fill="black"/>
<path d="M33.3067 26.0863L30.1169 24.2424C29.8051 24.0611 29.4052 24.1669 29.2239 24.4788C29.0426 24.7906 29.1484 25.1905 29.4602 25.3718L32.65 27.2157C32.9618 27.397 33.3617 27.2912 33.543 26.9793C33.7243 26.6674 33.6185 26.2676 33.3067 26.0863Z" fill="black"/>
<path d="M18.0506 30.907C17.6888 30.8801 17.3739 31.1515 17.3471 31.5133C17.3446 31.5457 17.3446 31.5781 17.3471 31.6105V35.2946C17.3202 35.6563 17.5916 35.9712 17.9533 35.9981C18.3151 36.025 18.63 35.7536 18.6569 35.3918C18.6593 35.3595 18.6593 35.327 18.6569 35.2946V31.6105C18.6837 31.2489 18.4122 30.9339 18.0506 30.907Z" fill="black"/>
<path d="M6.54007 10.6319L3.35032 8.78802C3.03847 8.6067 2.63858 8.71251 2.45727 9.02436C2.27595 9.33621 2.38176 9.7361 2.69361 9.91742L5.88336 11.7613C6.1952 11.9426 6.5951 11.8368 6.77641 11.5249C6.95773 11.213 6.85192 10.8132 6.54007 10.6319Z" fill="black"/>
<path d="M18.0506 0.00183627C17.6888 -0.0250456 17.3739 0.246389 17.347 0.608122C17.3446 0.640507 17.3446 0.672982 17.347 0.705366V4.38945C17.349 4.74929 17.6403 5.04057 18.0001 5.04255C18.3629 5.04255 18.6569 4.74857 18.6569 4.38584V0.705456C18.6836 0.343723 18.4122 0.0287182 18.0506 0.00183627Z" fill="black"/>
<path d="M11.7575 5.88335L9.91723 2.69361C9.73592 2.38176 9.33602 2.27595 9.02418 2.45727C8.71233 2.63858 8.60652 3.03847 8.78783 3.35032L10.6281 6.54007C10.8094 6.85191 11.2093 6.95773 11.5211 6.77641C11.833 6.595 11.9388 6.1952 11.7575 5.88335Z" fill="black"/>
<path d="M18.0975 12.1726C18.0651 12.1702 18.0327 12.1702 18.0003 12.1726C14.7818 12.1726 12.1729 14.7816 12.1729 18C12.1729 18.3627 12.4668 18.6567 12.8296 18.6567C13.1908 18.6548 13.4827 18.3613 13.4827 18C13.4807 15.507 15.5001 13.4844 17.9931 13.4824C17.9955 13.4824 17.9978 13.4824 18.0003 13.4824C18.362 13.5093 18.6769 13.2379 18.7038 12.8761C18.7307 12.5144 18.4592 12.1994 18.0975 12.1726Z" fill="black"/>
<path d="M35.901 17.9496C35.8769 17.6253 35.6191 17.3674 35.2947 17.3433H31.6106C31.2489 17.3164 30.934 17.5878 30.9071 17.9496C30.8802 18.3113 31.1517 18.6262 31.5134 18.6531C31.5458 18.6555 31.5783 18.6555 31.6107 18.6531H35.2948C35.6565 18.6263 35.9279 18.3113 35.901 17.9496Z" fill="black"/>
<path d="M4.48662 17.3469C4.45423 17.3445 4.42176 17.3445 4.38937 17.3469H0.70529C0.343557 17.3738 0.0721223 17.6888 0.0990042 18.0505C0.12309 18.3747 0.380903 18.6327 0.70529 18.6567H4.38937C4.75111 18.6836 5.06602 18.4122 5.0929 18.0505C5.11978 17.6887 4.84835 17.3737 4.48662 17.3469Z" fill="black"/>
<path d="M18.0024 8.36224C12.6796 8.36152 8.36409 12.6759 8.36328 17.9987C8.36292 20.5558 9.37884 23.0083 11.1872 24.8161C12.9922 26.6256 15.444 27.6411 17.9997 27.6378C23.3225 27.6385 27.6381 23.3242 27.6389 18.0014C27.6396 12.6786 23.3252 8.36297 18.0024 8.36224ZM23.8885 23.8996C20.6362 27.1519 15.3632 27.1519 12.111 23.8996C10.5465 22.3351 9.66886 20.2125 9.67174 18C9.66859 15.7907 10.5465 13.6712 12.111 12.1113V12.1221C15.3632 8.86984 20.6362 8.86984 23.8885 12.1221C27.1408 15.3744 27.1408 20.6474 23.8885 23.8996Z" fill="black"/>
<path d="M27.214 32.6527C27.2134 32.6517 27.2129 32.6507 27.2123 32.6498L25.3684 29.46C25.1871 29.1482 24.7872 29.0424 24.4753 29.2237C24.1635 29.405 24.0577 29.8049 24.239 30.1167L26.0829 33.3065C26.2635 33.618 26.6622 33.7245 26.9741 33.5446C27.2867 33.3645 27.3941 32.9651 27.214 32.6527Z" fill="black"/>
<path d="M26.9972 2.45727C26.6854 2.27595 26.2855 2.38176 26.1042 2.69361L24.2603 5.88335C24.0778 6.19448 24.182 6.59464 24.4931 6.77713C24.4937 6.77749 24.4942 6.77785 24.4949 6.77821C24.8065 6.95989 25.2063 6.85462 25.388 6.54295C25.3886 6.54196 25.3892 6.54097 25.3897 6.54007L27.2336 3.35032C27.4149 3.03838 27.3091 2.63858 26.9972 2.45727Z" fill="black"/>
<path d="M11.5247 29.2237C11.2129 29.0424 10.813 29.1482 10.6317 29.46L8.78783 32.6498C8.60652 32.9616 8.71233 33.3615 9.02418 33.5428C9.33603 33.7241 9.73592 33.6183 9.91723 33.3065L11.7611 30.1167C11.9424 29.8048 11.8366 29.405 11.5247 29.2237Z" fill="black"/>
<path d="M6.77641 24.4752C6.5951 24.1633 6.1952 24.0575 5.88336 24.2388L2.69361 26.0827C2.38176 26.264 2.27595 26.6639 2.45727 26.9757C2.63858 27.2876 3.03847 27.3934 3.35032 27.2121L6.54007 25.3682C6.85192 25.1868 6.95773 24.787 6.77641 24.4752Z" fill="black"/>
</g>
<defs>
<clipPath id="clip0">
<rect width="36" height="36" fill="white"/>
</clipPath>
</defs>
</svg>
